<svg style="background: #eceff4; font-family: Inter, system-ui, Avenir, Helvetica, Arial, sans-serif" width="1200" height="800" xmlns="http://www.w3.org/2000/svg" xmlns:xlink="http://www.w3.org/1999/xlink" version="1.1" baseProfile="full" viewBox="0 0 1200 800">
<rect width="1200" height="800" x="0" y="0" fill="none"></rect>
<path d="M807.8 520Q614.9 420.3 600.6 630" transform="translate(0 -24)" fill="none" pointer-events="visible" stroke="#5e81ac" stroke-width="4.25" stroke-opacity="0.6" ecmeta_series_index="0" ecmeta_data_index="0" ecmeta_ssr_type="chart" class="zr0-cls-0"></path>
<path d="M0 0L6.6667 10L0 7.5L-6.6667 10L0 0Z" transform="matrix(-0.998,-0.068,0.068,-0.998,600.5731,606.0165)" fill="#5e81ac" fill-opacity="0.6" ecmeta_series_index="0" ecmeta_data_index="0" ecmeta_ssr_type="chart" class="zr0-cls-1"></path>
<path d="M807.8 520Q604.5 414.3 401.1 515.5" transform="translate(0 -24)" fill="none" pointer-events="visible" stroke="#5e81ac" stroke-width="3.6" stroke-opacity="0.6" ecmeta_series_index="0" ecmeta_data_index="1" ecmeta_ssr_type="chart" class="zr0-cls-0"></path>
<path d="M0 0L6.6667 10L0 7.5L-6.6667 10L0 0Z" transform="matrix(-0.445,-0.895,0.895,-0.445,401.0677,491.4676)" fill="#5e81ac" fill-opacity="0.6" ecmeta_series_index="0" ecmeta_data_index="1" ecmeta_ssr_type="chart" class="zr0-cls-1"></path>
<path d="M807.8 520Q604.3 402.5 400.8 285" transform="translate(0 -24)" fill="none" pointer-events="visible" stroke="#5e81ac" stroke-width="4.75" stroke-opacity="0.6" ecmeta_series_index="0" ecmeta_data_index="2" ecmeta_ssr_type="chart" class="zr0-cls-0"></path>
<path d="M0 0L6.7 10L0 7.5L-6.7 10L0 0Z" transform="matrix(0.5,-0.866,0.866,0.5,400.8146,261.0002)" fill="#5e81ac" fill-opacity="0.6" ecmeta_series_index="0" ecmeta_data_index="2" ecmeta_ssr_type="chart" class="zr0-cls-1"></path>
<path d="M600 640Q589.8 423.1 401.1 515.5" transform="translate(0 -24)" fill="none" pointer-events="visible" stroke="#a3be8c" stroke-width="3.4" stroke-opacity="0.6" ecmeta_series_index="0" ecmeta_data_index="3" ecmeta_ssr_type="chart" class="zr0-cls-0"></path>
<path d="M0 0L6.6667 10L0 7.5L-6.6667 10L0 0Z" transform="matrix(-0.44,-0.898,0.898,-0.44,401.0864,491.5046)" fill="#a3be8c" fill-opacity="0.6" ecmeta_series_index="0" ecmeta_data_index="3" ecmeta_ssr_type="chart" class="zr0-cls-2"></path>
<path d="M600 640Q600 405 600 170" transform="translate(0 -24)" fill="none" pointer-events="visible" stroke="#a3be8c" stroke-width="2.25" stroke-opacity="0.6" ecmeta_series_index="0" ecmeta_data_index="4" ecmeta_ssr_type="chart" class="zr0-cls-0"></path>
<path d="M0 0L6.7 10L0 7.5L-6.7 10L0 0Z" transform="translate(600 146.0005)" fill="#a3be8c" fill-opacity="0.6" ecmeta_series_index="0" ecmeta_data_index="4" ecmeta_ssr_type="chart" class="zr0-cls-2"></path>
<path d="M392.2 520Q585.4 396.7 599.5 170" transform="translate(0 -24)" fill="none" pointer-events="visible" stroke="#ebcb8b" stroke-width="2.9" stroke-opacity="0.6" ecmeta_series_index="0" ecmeta_data_index="5" ecmeta_ssr_type="chart" class="zr0-cls-0"></path>
<path d="M0 0L6.7 10L0 7.5L-6.7 10L0 0Z" transform="matrix(0.998,0.062,-0.062,0.998,599.4683,145.9857)" fill="#ebcb8b" fill-opacity="0.6" ecmeta_series_index="0" ecmeta_data_index="5" ecmeta_ssr_type="chart" class="zr0-cls-3"></path>
<path d="M392.2 520Q595.7 402.5 799.2 285" transform="translate(0 -24)" fill="none" pointer-events="visible" stroke="#ebcb8b" stroke-width="2.1" stroke-opacity="0.6" ecmeta_series_index="0" ecmeta_data_index="6" ecmeta_ssr_type="chart" class="zr0-cls-0"></path>
<path d="M0 0L6.7 10L0 7.5L-6.7 10L0 0Z" transform="matrix(0.5,0.866,-0.866,0.5,799.1854,261.0002)" fill="#ebcb8b" fill-opacity="0.6" ecmeta_series_index="0" ecmeta_data_index="6" ecmeta_ssr_type="chart" class="zr0-cls-3"></path>
<path d="M600 160Q610.2 376.9 798.9 284.5" transform="translate(0 -24)" fill="none" pointer-events="visible" stroke="#b48ead" stroke-width="3.25" stroke-opacity="0.6" ecmeta_series_index="0" ecmeta_data_index="7" ecmeta_ssr_type="chart" class="zr0-cls-0"></path>
<path d="M0 0L6.7 10L0 7.5L-6.7 10L0 0Z" transform="matrix(0.44,0.898,-0.898,0.44,798.9136,260.4954)" fill="#b48ead" fill-opacity="0.6" ecmeta_series_index="0" ecmeta_data_index="7" ecmeta_ssr_type="chart" class="zr0-cls-4"></path>
<path d="M392.2 280Q595.7 397.5 799.2 515" transform="translate(0 -24)" fill="none" pointer-events="visible" stroke="#d08770" stroke-width="4.4" stroke-opacity="0.6" ecmeta_series_index="0" ecmeta_data_index="8" ecmeta_ssr_type="chart" class="zr0-cls-0"></path>
<path d="M0 0L6.6667 10L0 7.5L-6.6667 10L0 0Z" transform="matrix(-0.5,0.866,-0.866,-0.5,799.1854,490.9998)" fill="#d08770" fill-opacity="0.6" ecmeta_series_index="0" ecmeta_data_index="8" ecmeta_ssr_type="chart" class="zr0-cls-5"></path>
<path d="M807.8 280Q604.3 397.5 400.8 515" transform="translate(0 -24)" fill="none" pointer-events="visible" stroke="#bf616a" stroke-width="1.5" stroke-opacity="0.6" ecmeta_series_index="0" ecmeta_data_index="9" ecmeta_ssr_type="chart" class="zr0-cls-0"></path>
<path d="M0 0L6.6667 10L0 7.5L-6.6667 10L0 0Z" transform="matrix(-0.5,-0.866,0.866,-0.5,400.8146,490.9998)" fill="#bf616a" fill-opacity="0.6" ecmeta_series_index="0" ecmeta_data_index="9" ecmeta_ssr_type="chart" class="zr0-cls-6"></path>
<path d="M1 0A1 1 0 1 1 1 -0.1A1 1 0 0 1 1 0" transform="matrix(10,0,0,10,807.8461,496)" fill="#c9d4e2" stroke="#5e81ac" stroke-width="0.2" ecmeta_series_index="0" ecmeta_data_index="0" ecmeta_ssr_type="chart" class="zr0-cls-7"></path>
<path d="M1 0A1 1 0 1 1 1 -0.1A1 1 0 0 1 1 0" transform="matrix(10,0,0,10,600,616)" fill="#dae3da" stroke="#a3be8c" stroke-width="0.2" ecmeta_series_index="0" ecmeta_data_index="1" ecmeta_ssr_type="chart" class="zr0-cls-8"></path>
<path d="M1 0A1 1 0 1 1 1 -0.1A1 1 0 0 1 1 0" transform="matrix(10,0,0,10,392.1539,496)" fill="#ece6da" stroke="#ebcb8b" stroke-width="0.2" ecmeta_series_index="0" ecmeta_data_index="2" ecmeta_ssr_type="chart" class="zr0-cls-9"></path>
<path d="M1 0A1 1 0 1 1 1 -0.1A1 1 0 0 1 1 0" transform="matrix(10,0,0,10,392.1539,256)" fill="#e5d5d3" stroke="#d08770" stroke-width="0.2" ecmeta_series_index="0" ecmeta_data_index="3" ecmeta_ssr_type="chart" class="zr0-cls-10"></path>
<path d="M1 0A1 1 0 1 1 1 -0.1A1 1 0 0 1 1 0" transform="matrix(10,0,0,10,600,136)" fill="#ded7e2" stroke="#b48ead" stroke-width="0.2" ecmeta_series_index="0" ecmeta_data_index="4" ecmeta_ssr_type="chart" class="zr0-cls-11"></path>
<path d="M1 0A1 1 0 1 1 1 -0.1A1 1 0 0 1 1 0" transform="matrix(10,0,0,10,807.8461,256)" fill="#e1ccd2" stroke="#bf616a" stroke-width="0.2" ecmeta_series_index="0" ecmeta_data_index="5" ecmeta_ssr_type="chart" class="zr0-cls-12"></path>
<text dominant-baseline="central" text-anchor="start" style="font-size:12px;font-family:sans-serif;" transform="matrix(0.866,0.5,-0.5,0.866,821.7025,504)" fill="#2e3440">Engineering</text>
<text dominant-baseline="central" text-anchor="start" style="font-size:12px;font-family:sans-serif;" transform="matrix(0,1,-1,0,600,632)" fill="#2e3440">Design</text>
<text dominant-baseline="central" text-anchor="end" style="font-size:12px;font-family:sans-serif;" transform="matrix(0.866,-0.5,0.5,0.866,378.2975,504)" fill="#2e3440">Product</text>
<text dominant-baseline="central" text-anchor="end" style="font-size:12px;font-family:sans-serif;" transform="matrix(0.866,0.5,-0.5,0.866,378.2975,248)" fill="#2e3440">QA</text>
<text dominant-baseline="central" text-anchor="start" style="font-size:12px;font-family:sans-serif;" transform="matrix(0,-1,1,0,600,120)" fill="#2e3440">Marketing</text>
<text dominant-baseline="central" text-anchor="start" style="font-size:12px;font-family:sans-serif;" transform="matrix(0.866,-0.5,0.5,0.866,821.7025,248)" fill="#2e3440">Sales</text>
<path d="M-142.7 -5l285.4 0l0 30l-285.4 0Z" transform="translate(600 13)" fill="rgb(0,0,0)" fill-opacity="0" stroke="#3c3c41" stroke-width="0" class="zr0-cls-13"></path>
<text dominant-baseline="central" text-anchor="middle" style="font-size:20px;font-family:Inter, system-ui, Avenir, Helvetica, Arial, sans-serif;font-weight:bold;" xml:space="preserve" y="10" transform="translate(600 13)" fill="#2e3440">Inter-Department Collaboration</text>
<style ><![CDATA[
.zr0-cls-0:hover {
cursor:pointer;
stroke-width:5;
}
.zr0-cls-1:hover {
cursor:pointer;
fill:rgba(103,141,189,1);
}
.zr0-cls-2:hover {
cursor:pointer;
fill:rgba(179,209,154,1);
}
.zr0-cls-3:hover {
cursor:pointer;
fill:rgba(255,223,152,1);
}
.zr0-cls-4:hover {
cursor:pointer;
fill:rgba(198,156,190,1);
}
.zr0-cls-5:hover {
cursor:pointer;
fill:rgba(228,148,123,1);
}
.zr0-cls-6:hover {
cursor:pointer;
fill:rgba(210,106,116,1);
}
.zr0-cls-7:hover {
cursor:pointer;
fill:rgba(221,233,248,1);
}
.zr0-cls-8:hover {
cursor:pointer;
fill:rgba(239,249,239,1);
}
.zr0-cls-9:hover {
cursor:pointer;
fill:rgba(255,253,239,1);
}
.zr0-cls-10:hover {
cursor:pointer;
fill:rgba(251,234,232,1);
}
.zr0-cls-11:hover {
cursor:pointer;
fill:rgba(244,236,248,1);
}
.zr0-cls-12:hover {
cursor:pointer;
fill:rgba(247,224,231,1);
}
.zr0-cls-13:hover {
pointer-events:none;
}

]]>

</style>
</svg>