<svg width="680" height="568" viewBox="0 0 680 568" preserveAspectRatio="xMidYMid meet" style="font-family: Inter, system-ui, Avenir, Helvetica, Arial, sans-serif; background: rgb(236, 239, 244);" xmlns="http://www.w3.org/2000/svg"><text class="chart-title" x="340" y="30" text-anchor="middle" fill="#2e3440" font-size="20" font-weight="700" style="cursor: default;" data-line-number="1">Pirate Fleet</text><g transform="translate(43.60655737704917, 96) scale(0.9262295081967213)"><g class="er-edge-group" data-line-number="8"><path d="M142.57,181.5L153.808,165C165.046,148.5,187.523,115.5,217.095,99C246.667,82.5,283.333,82.5,320,82.5C356.667,82.5,393.333,82.5,418.333,83.106C443.333,83.712,456.667,84.924,463.333,85.53L470,86.136" fill="none" stroke="#4c566a" stroke-width="1.5" class="er-edge"></path><line x1="143.01233480260484" y1="164.86257115640294" x2="157.88929747511688" y2="174.99548690857833" stroke="#4c566a" stroke-width="2"></line><line x1="452.07392228358134" y1="84.5067202075983" x2="464.2057122532788" y2="94.64672376436037" stroke="#4c566a" stroke-width="2"></line><line x1="452.07392228358134" y1="84.5067202075983" x2="465.83535568204417" y2="76.72064604794171" stroke="#4c566a" stroke-width="2"></line><line x1="452.07392228358134" y1="84.5067202075983" x2="465.0205339676615" y2="85.68368490615104" stroke="#4c566a" stroke-width="2"></line><rect x="298.785" y="73.5" width="42.43" height="16" rx="3" fill="#eceff4" opacity="0.85" class="er-edge-label-bg"></rect><text x="320" y="86.5" text-anchor="middle" fill="#4c566a" font-size="11" class="er-edge-label">aboard</text></g><g class="er-edge-group" data-line-number="9"><path d="M170,293.636L176.667,298.364C183.333,303.091,196.667,312.545,210,317.273C223.333,322,236.667,322,243.333,322L250,322" fill="none" stroke="#4c566a" stroke-width="1.5" class="er-edge"></path><line x1="186.62611947082544" y1="294.3927704989971" x2="176.21440147928266" y2="309.07596253835226" stroke="#4c566a" stroke-width="2"></line><line x1="236" y1="331" x2="236" y2="313" stroke="#4c566a" stroke-width="2"></line></g><g class="er-edge-group" data-line-number="10"><path d="M170,194.364L176.667,189.636C183.333,184.909,196.667,175.455,210,170.727C223.333,166,236.667,166,243.333,166L250,166" fill="none" stroke="#4c566a" stroke-width="1.5" class="er-edge"></path><line x1="176.21440147928266" y1="178.9240374616477" x2="186.62611947082544" y2="193.60722950100293" stroke="#4c566a" stroke-width="2"></line><line x1="232" y1="166" x2="245" y2="175" stroke="#4c566a" stroke-width="2"></line><line x1="232" y1="166" x2="245" y2="157" stroke="#4c566a" stroke-width="2"></line><line x1="232" y1="166" x2="245" y2="166" stroke="#4c566a" stroke-width="2"></line><rect x="189.5" y="157" width="41" height="16" rx="3" fill="#eceff4" opacity="0.85" class="er-edge-label-bg"></rect><text x="210" y="170" text-anchor="middle" fill="#4c566a" font-size="11" class="er-edge-label">carries</text></g><g class="er-edge-group" data-line-number="17"><path d="M390,345.068L396.667,347.265C403.333,349.462,416.667,353.856,430,358.856C443.333,363.856,456.667,369.462,463.333,372.265L470,375.068" fill="none" stroke="#4c566a" stroke-width="1.5" class="er-edge"></path><circle cx="414.69368309623553" cy="353.2058728385322" r="5" fill="none" stroke="#4c566a" stroke-width="2"></circle><line x1="406.11349163578654" y1="340.90220206505813" x2="400.4797055447748" y2="357.99782882399046" stroke="#4c566a" stroke-width="2"></line><line x1="453.60604809180467" y1="377.93843282319494" x2="460.5826436003402" y2="361.34544891100234" stroke="#4c566a" stroke-width="2"></line><rect x="402.955" y="349.25" width="54.09" height="16" rx="3" fill="#eceff4" opacity="0.85" class="er-edge-label-bg"></rect><text x="430" y="362.25" text-anchor="middle" fill="#4c566a" font-size="11" class="er-edge-label">frequents</text></g><g class="er-edge-group" data-line-number="18"><path d="M382.642,259.5L390.535,251.625C398.428,243.75,414.214,228,430.872,210.583C447.53,193.167,465.059,174.083,473.824,164.542L482.589,155" fill="none" stroke="#4c566a" stroke-width="1.5" class="er-edge"></path><line x1="395.3847628382078" y1="246.7865661682427" x2="379.8252059428743" y2="249.5972936934363" stroke="#4c566a" stroke-width="2"></line><line x1="395.3847628382078" y1="246.7865661682427" x2="392.53863977463163" y2="262.339687511143" stroke="#4c566a" stroke-width="2"></line><line x1="395.3847628382078" y1="246.7865661682427" x2="386.18192285875296" y2="255.96849060228965" stroke="#4c566a" stroke-width="2"></line><line x1="479.7459306089221" y1="171.39873505623277" x2="466.489799570591" y2="159.2219132256155" stroke="#4c566a" stroke-width="2"></line><rect x="417.09" y="203.25" width="25.82" height="16" rx="3" fill="#eceff4" opacity="0.85" class="er-edge-label-bg"></rect><text x="430" y="216.25" text-anchor="middle" fill="#4c566a" font-size="11" class="er-edge-label">has</text></g><g class="er-edge-group" data-line-number="36"><path d="M470,410.864L463.333,411.47C456.667,412.076,443.333,413.288,418.333,413.894C393.333,414.5,356.667,414.5,320,414.5C283.333,414.5,246.667,414.5,216.72,396.5C186.774,378.5,163.548,342.5,151.935,324.5L140.323,306.5" fill="none" stroke="#4c566a" stroke-width="1.5" class="er-edge"></path><line x1="456.8723168238348" y1="421.094175666441" x2="455.24267339506946" y2="403.1680979500223" stroke="#4c566a" stroke-width="2"></line><line x1="150.08086430195897" y1="321.6253396680364" x2="150.59588482828997" y2="305.8223414127224" stroke="#4c566a" stroke-width="2"></line><line x1="150.08086430195897" y1="321.6253396680364" x2="135.47054516025355" y2="315.58062506952" stroke="#4c566a" stroke-width="2"></line><line x1="150.08086430195897" y1="321.6253396680364" x2="143.03321499427176" y2="310.7014832411212" stroke="#4c566a" stroke-width="2"></line><rect x="301.59" y="405.5" width="36.82" height="16" rx="3" fill="#eceff4" opacity="0.85" class="er-edge-label-bg"></rect><text x="320" y="418.5" text-anchor="middle" fill="#4c566a" font-size="11" class="er-edge-label">docks</text></g><g transform="translate(100, 244)" class="er-table" data-line-number="3" data-node-id="ships" data-er-role="core"><rect x="-70" y="-62.5" width="140" height="125" rx="3" ry="3" fill="#dae3da" stroke="#a3be8c" stroke-width="1.5"></rect><text x="0" y="-44.5" text-anchor="middle" dominant-baseline="central" fill="#2e3440" font-size="13" font-weight="bold">ships</text><line x1="-70" y1="-26.5" x2="70" y2="-26.5" stroke="#a3be8c" stroke-width="0.5" stroke-opacity="0.5"></line><text x="-60" y="-9.5" dominant-baseline="central" fill="#2e3440" font-size="11">♦</text><text x="-44" y="-9.5" dominant-baseline="central" fill="#2e3440" font-size="11">id: int</text><text x="-60" y="8.5" dominant-baseline="central" fill="#2e3440" font-size="11">name: varchar</text><text x="-60" y="26.5" dominant-baseline="central" fill="#2e3440" font-size="11">ship_type: varchar</text><text x="-60" y="44.5" dominant-baseline="central" fill="#2e3440" font-size="11">cannons: int</text></g><g transform="translate(540, 92.5)" class="er-table" data-line-number="20" data-node-id="crew_members" data-er-role="dependent"><rect x="-70" y="-62.5" width="140" height="125" rx="3" ry="3" fill="#c9d4e2" stroke="#5e81ac" stroke-width="1.5"></rect><text x="0" y="-44.5" text-anchor="middle" dominant-baseline="central" fill="#2e3440" font-size="13" font-weight="bold">crew_members</text><line x1="-70" y1="-26.5" x2="70" y2="-26.5" stroke="#5e81ac" stroke-width="0.5" stroke-opacity="0.5"></line><text x="-60" y="-9.5" dominant-baseline="central" fill="#2e3440" font-size="11">♦</text><text x="-44" y="-9.5" dominant-baseline="central" fill="#2e3440" font-size="11">id: int</text><text x="-60" y="8.5" dominant-baseline="central" fill="#2e3440" font-size="11">name: varchar</text><text x="-60" y="26.5" dominant-baseline="central" fill="#2e3440" font-size="11">→</text><text x="-44" y="26.5" dominant-baseline="central" fill="#2e3440" font-size="11">ship_id: int</text><text x="-60" y="44.5" dominant-baseline="central" fill="#2e3440" font-size="11">○</text><text x="-44" y="44.5" dominant-baseline="central" fill="#2e3440" font-size="11">role: varchar</text></g><g transform="translate(320, 322)" class="er-table" data-line-number="12" data-node-id="captains" data-er-role="dependent"><rect x="-70" y="-62.5" width="140" height="125" rx="3" ry="3" fill="#c9d4e2" stroke="#5e81ac" stroke-width="1.5"></rect><text x="0" y="-44.5" text-anchor="middle" dominant-baseline="central" fill="#2e3440" font-size="13" font-weight="bold">captains</text><line x1="-70" y1="-26.5" x2="70" y2="-26.5" stroke="#5e81ac" stroke-width="0.5" stroke-opacity="0.5"></line><text x="-60" y="-9.5" dominant-baseline="central" fill="#2e3440" font-size="11">♦</text><text x="-44" y="-9.5" dominant-baseline="central" fill="#2e3440" font-size="11">id: int</text><text x="-60" y="8.5" dominant-baseline="central" fill="#2e3440" font-size="11">name: varchar</text><text x="-60" y="26.5" dominant-baseline="central" fill="#2e3440" font-size="11">→</text><text x="-44" y="26.5" dominant-baseline="central" fill="#2e3440" font-size="11">ship_id: int</text><text x="-60" y="44.5" dominant-baseline="central" fill="#2e3440" font-size="11">bounty: int</text></g><g transform="translate(320, 166)" class="er-table" data-line-number="26" data-node-id="treasure" data-er-role="core"><rect x="-70" y="-53.5" width="140" height="107" rx="3" ry="3" fill="#dae3da" stroke="#a3be8c" stroke-width="1.5"></rect><text x="0" y="-35.5" text-anchor="middle" dominant-baseline="central" fill="#2e3440" font-size="13" font-weight="bold">treasure</text><line x1="-70" y1="-17.5" x2="70" y2="-17.5" stroke="#a3be8c" stroke-width="0.5" stroke-opacity="0.5"></line><text x="-60" y="-0.5" dominant-baseline="central" fill="#2e3440" font-size="11">♦</text><text x="-44" y="-0.5" dominant-baseline="central" fill="#2e3440" font-size="11">id: int</text><text x="-60" y="17.5" dominant-baseline="central" fill="#2e3440" font-size="11">name: varchar</text><text x="-60" y="35.5" dominant-baseline="central" fill="#2e3440" font-size="11">value: int</text></g><g transform="translate(540, 404.5)" class="er-table" data-line-number="32" data-node-id="ports" data-er-role="core"><rect x="-70" y="-53.5" width="140" height="107" rx="3" ry="3" fill="#dae3da" stroke="#a3be8c" stroke-width="1.5"></rect><text x="0" y="-35.5" text-anchor="middle" dominant-baseline="central" fill="#2e3440" font-size="13" font-weight="bold">ports</text><line x1="-70" y1="-17.5" x2="70" y2="-17.5" stroke="#a3be8c" stroke-width="0.5" stroke-opacity="0.5"></line><text x="-60" y="-0.5" dominant-baseline="central" fill="#2e3440" font-size="11">♦</text><text x="-44" y="-0.5" dominant-baseline="central" fill="#2e3440" font-size="11">id: int</text><text x="-60" y="17.5" dominant-baseline="central" fill="#2e3440" font-size="11">name: varchar</text><text x="-60" y="35.5" dominant-baseline="central" fill="#2e3440" font-size="11">◆</text><text x="-44" y="35.5" dominant-baseline="central" fill="#2e3440" font-size="11">region: varchar</text></g></g><g class="er-semantic-legend" transform="translate(0,60)"><g class="dgmo-legend" data-legend-title-relation="below-title" data-legend-capsule-addon-width="0" data-legend-active="role"><g transform="translate(245.82,0)" data-legend-group="role" style="cursor: pointer;" class="er-legend-group"><rect width="188.35999999999999" height="28" rx="14" fill="#eaedf3"></rect><rect x="4" y="4" width="38.66" height="20" rx="10" fill="#eceff4"></rect><rect x="4" y="4" width="38.66" height="20" rx="10" fill="none" stroke="#9ca3af" stroke-width="0.75"></rect><text x="23.33" y="14" text-anchor="middle" dy="0.32em" font-size="11" font-weight="500" fill="#2e3440" pointer-events="none" font-family="Inter, system-ui, Avenir, Helvetica, Arial, sans-serif">Role</text><g data-legend-entry="core entity" data-series-name="Core entity" style="cursor: pointer;"><circle cx="50.66" cy="14" r="4" fill="#a3be8c"></circle><text x="58.66" y="14" dy="0.32em" font-size="10" fill="#4c566a" font-family="Inter, system-ui, Avenir, Helvetica, Arial, sans-serif">Core entity</text></g><g data-legend-entry="dependent" data-series-name="Dependent" style="cursor: pointer;"><circle cx="119.16" cy="14" r="4" fill="#5e81ac"></circle><text x="127.16" y="14" dy="0.32em" font-size="10" fill="#4c566a" font-family="Inter, system-ui, Avenir, Helvetica, Arial, sans-serif">Dependent</text></g></g></g></g></svg>