<svg width="1200" height="2030" viewBox="0 0 1200 2030" preserveAspectRatio="xMidYMin meet" style="font-family: Inter, system-ui, Avenir, Helvetica, Arial, sans-serif; background: rgb(236, 239, 244);" xmlns="http://www.w3.org/2000/svg"><defs><marker id="fc-arrow" viewBox="0 0 10 7" refX="10" refY="3.5" markerWidth="10" markerHeight="7" orient="auto"><polygon points="0,0 10,3.5 0,7" fill="#4c566a"></polygon></marker></defs><text class="chart-title" x="600" y="30" text-anchor="middle" fill="#2e3440" font-size="20" font-weight="700" style="cursor: default;" data-line-number="1">Color Demo</text><g transform="translate(49.5, 60) scale(3)"><g class="fc-edge-group" data-line-number="3"><path d="M172.75,50L172.75,50C172.75,50,172.75,50,172.75,50C172.75,50,172.75,50,172.75,55C172.75,60,172.75,70,172.75,80C172.75,90,172.75,100,172.75,105C172.75,110,172.75,110,172.75,110C172.75,110,172.75,110,172.75,110L172.75,110" fill="none" stroke="#4c566a" stroke-width="1.5" marker-end="url(#fc-arrow)" class="fc-edge"></path></g><g class="fc-edge-group" data-line-number="3"><path d="M172.75,160L172.75,160C172.75,160,172.75,160,172.75,160C172.75,160,172.75,160,172.75,165C172.75,170,172.75,180,172.75,190C172.75,200,172.75,210,172.75,215C172.75,220,172.75,220,172.75,220C172.75,220,172.75,220,172.75,220L172.75,220" fill="none" stroke="#4c566a" stroke-width="1.5" marker-end="url(#fc-arrow)" class="fc-edge"></path></g><g class="fc-edge-group" data-line-number="4"><path d="M219.875,280L219.875,280C219.875,280,219.875,280,219.875,280C219.875,280,219.875,280,227.729,285C235.583,290,251.292,300,259.146,310C267,320,267,330,267,335C267,340,267,340,267,340C267,340,267,340,267,340L267,340" fill="none" stroke="#4c566a" stroke-width="1.5" marker-end="url(#fc-arrow)" class="fc-edge"></path><rect x="246.55567968496413" y="307.17676824743444" width="25.16" height="16" rx="3" fill="#eceff4" opacity="0.85" class="fc-edge-label-bg"></rect><text x="259.13567968496415" y="320.17676824743444" text-anchor="middle" fill="#4c566a" font-size="11" class="fc-edge-label">yes</text></g><g class="fc-edge-group" data-line-number="4"><path d="M267,390L267,390C267,390,267,390,267,390C267,390,267,390,267,395C267,400,267,410,267,420C267,430,267,440,267,445C267,450,267,450,267,450C267,450,267,450,267,450L267,450" fill="none" stroke="#4c566a" stroke-width="1.5" marker-end="url(#fc-arrow)" class="fc-edge"></path></g><g class="fc-edge-group" data-line-number="5"><path d="M125.625,280L125.625,280C125.625,280,125.625,280,125.625,280C125.625,280,125.625,280,117.771,285C109.917,290,94.208,300,86.354,310C78.5,320,78.5,330,78.5,335C78.5,340,78.5,340,78.5,340C78.5,340,78.5,340,78.5,340L78.5,340" fill="none" stroke="#4c566a" stroke-width="1.5" marker-end="url(#fc-arrow)" class="fc-edge"></path><rect x="60.475679684964135" y="294.82323175256556" width="20.32" height="16" rx="3" fill="#eceff4" opacity="0.85" class="fc-edge-label-bg"></rect><text x="70.63567968496413" y="307.82323175256556" text-anchor="middle" fill="#4c566a" font-size="11" class="fc-edge-label">no</text></g><g class="fc-edge-group" data-line-number="5"><path d="M78.5,390L78.5,390C78.5,390,78.5,390,78.5,390C78.5,390,78.5,390,78.5,395C78.5,400,78.5,410,78.5,420C78.5,430,78.5,440,78.5,445C78.5,450,78.5,450,78.5,450C78.5,450,78.5,450,78.5,450L78.5,450" fill="none" stroke="#4c566a" stroke-width="1.5" marker-end="url(#fc-arrow)" class="fc-edge"></path></g><g class="fc-edge-group" data-line-number="5"><path d="M78.5,500L78.5,500C78.5,500,78.5,500,78.5,500C78.5,500,78.5,500,78.5,505C78.5,510,78.5,520,78.5,530C78.5,540,78.5,550,78.5,555C78.5,560,78.5,560,78.5,560C78.5,560,78.5,560,78.5,560L78.5,560" fill="none" stroke="#4c566a" stroke-width="1.5" marker-end="url(#fc-arrow)" class="fc-edge"></path></g><g transform="translate(172.75, 25)" class="fc-node" data-line-number="3" data-node-id="terminal:start"><rect x="-60" y="-25" width="120" height="50" rx="25" ry="25" fill="#dae3da" stroke="#a3be8c" stroke-width="1.5"></rect><text x="0" y="0" text-anchor="middle" dominant-baseline="central" fill="#2e3440" font-size="13">Start</text></g><g transform="translate(172.75, 135)" class="fc-node" data-line-number="3" data-node-id="process:parse input"><rect x="-69.5" y="-25" width="139" height="50" rx="3" ry="3" fill="#c9d4e2" stroke="#5e81ac" stroke-width="1.5"></rect><text x="0" y="0" text-anchor="middle" dominant-baseline="central" fill="#2e3440" font-size="13">Parse Input</text></g><g transform="translate(172.75, 250)" class="fc-node" data-line-number="3" data-node-id="decision:valid?"><polygon points="0,-30 60,0 0,30 -60,0" fill="#ece6da" stroke="#ebcb8b" stroke-width="1.5"></polygon><text x="0" y="0" text-anchor="middle" dominant-baseline="central" fill="#2e3440" font-size="13">Valid?</text></g><g transform="translate(267, 365)" class="fc-node" data-line-number="4" data-node-id="process:process"><rect x="-60" y="-25" width="120" height="50" rx="3" ry="3" fill="#c9d4e2" stroke="#5e81ac" stroke-width="1.5"></rect><text x="0" y="0" text-anchor="middle" dominant-baseline="central" fill="#2e3440" font-size="13">Process</text></g><g transform="translate(267, 475)" class="fc-node" data-line-number="4" data-node-id="terminal:success"><rect x="-60" y="-25" width="120" height="50" rx="25" ry="25" fill="#e1ccd2" stroke="#bf616a" stroke-width="1.5"></rect><text x="0" y="0" text-anchor="middle" dominant-baseline="central" fill="#2e3440" font-size="13">Success</text></g><g transform="translate(78.5, 365)" class="fc-node" data-line-number="5" data-node-id="process:error handler"><rect x="-78.5" y="-25" width="157" height="50" rx="3" ry="3" fill="#c9d4e2" stroke="#5e81ac" stroke-width="1.5"></rect><text x="0" y="0" text-anchor="middle" dominant-baseline="central" fill="#2e3440" font-size="13">Error Handler</text></g><g transform="translate(78.5, 475)" class="fc-node" data-line-number="5" data-node-id="io:log error"><polygon points="-45.5,-25 75.5,-25 45.5,25 -75.5,25" fill="#ded7e2" stroke="#b48ead" stroke-width="1.5"></polygon><text x="0" y="0" text-anchor="middle" dominant-baseline="central" fill="#2e3440" font-size="13">Log Error</text></g><g transform="translate(78.5, 585)" class="fc-node" data-line-number="5" data-node-id="terminal:failure"><rect x="-60" y="-25" width="120" height="50" rx="25" ry="25" fill="#e1ccd2" stroke="#bf616a" stroke-width="1.5"></rect><text x="0" y="0" text-anchor="middle" dominant-baseline="central" fill="#2e3440" font-size="13">Failure</text></g></g></svg>