<svg width="1184" height="608" viewBox="0 0 1184 608" style="font-family: Inter, system-ui, Avenir, Helvetica, Arial, sans-serif; background: rgb(236, 239, 244);" xmlns="http://www.w3.org/2000/svg"><style>.sk-node:hover{filter:saturate(1.4) brightness(1.06)}.sk-node{transition:filter .12s ease, opacity .12s ease}@media (hover:hover){svg:has(.sk-node[data-node-id="sketch-node-1"]:hover) .sk-edge-group:not([data-from="sketch-node-1"]):not([data-to="sketch-node-1"]){opacity:0.4}svg:has(.sk-node[data-node-id="sketch-node-2"]:hover) .sk-edge-group:not([data-from="sketch-node-2"]):not([data-to="sketch-node-2"]){opacity:0.4}svg:has(.sk-node[data-node-id="sketch-node-3"]:hover) .sk-edge-group:not([data-from="sketch-node-3"]):not([data-to="sketch-node-3"]){opacity:0.4}svg:has(.sk-node[data-node-id="sketch-node-4"]:hover) .sk-edge-group:not([data-from="sketch-node-4"]):not([data-to="sketch-node-4"]){opacity:0.4}svg:has(.sk-node[data-node-id="sketch-node-5"]:hover) .sk-edge-group:not([data-from="sketch-node-5"]):not([data-to="sketch-node-5"]){opacity:0.4}svg:has(.sk-node[data-node-id="[armory]"]:hover) .sk-edge-group:not([data-from="[armory]"]):not([data-to="[armory]"]){opacity:0.4}}</style><defs><marker id="sk-arrow-4c566a" viewBox="0 0 12 8" refX="12" refY="4" markerWidth="12" markerHeight="8" markerUnits="userSpaceOnUse" orient="auto"><polygon points="0,0 12,4 0,8" fill="#4c566a"></polygon></marker><marker id="sk-arrow-rev-4c566a" viewBox="0 0 12 8" refX="0" refY="4" markerWidth="12" markerHeight="8" markerUnits="userSpaceOnUse" orient="auto"><polygon points="12,0 0,4 12,8" fill="#4c566a"></polygon></marker></defs><text class="chart-title" x="592" y="32" text-anchor="middle" font-size="18" font-weight="700" fill="#2e3440">Plunder Pipeline</text><g transform="translate(0,44)"><g class="dgmo-legend" data-legend-title-relation="below-title" data-legend-capsule-addon-width="0" data-legend-active="crew"><g transform="translate(523.485,0)" data-legend-group="crew" style="cursor: pointer;" class="sk-legend-group"><rect width="137.03" height="28" rx="14" fill="#e2e6ed"></rect><rect x="4" y="4" width="41.63" height="20" rx="10" fill="#eceff4"></rect><rect x="4" y="4" width="41.63" height="20" rx="10" fill="none" stroke="#9ca3af" stroke-width="0.75"></rect><text x="24.815" y="14" text-anchor="middle" dy="0.32em" font-size="11" font-weight="500" fill="#2e3440" pointer-events="none" font-family="Inter, system-ui, Avenir, Helvetica, Arial, sans-serif">Crew</text><g data-legend-entry="deck" data-series-name="Deck" style="cursor: pointer;"><circle cx="53.63" cy="14" r="4" fill="#bf616a"></circle><text x="61.63" y="14" dy="0.32em" font-size="10" fill="#4c566a" font-family="Inter, system-ui, Avenir, Helvetica, Arial, sans-serif">Deck</text></g><g data-legend-entry="hold" data-series-name="Hold" style="cursor: pointer;"><circle cx="96.43" cy="14" r="4" fill="#a3be8c"></circle><text x="104.43" y="14" dy="0.32em" font-size="10" fill="#4c566a" font-family="Inter, system-ui, Avenir, Helvetica, Arial, sans-serif">Hold</text></g></g></g></g><g class="sk-root" transform="translate(20,178)"><g class="sk-boxes"><g class="sk-box" data-node-id="[below decks]" data-group-toggle="Below Decks" data-line-number="15"><rect x="494" y="212" width="572" height="198" rx="8" fill="#dae3da" fill-opacity="0.4" stroke="#a3be8c" stroke-opacity="0.7" stroke-width="2"></rect><text x="780" y="234" text-anchor="middle" dominant-baseline="central" font-size="19" font-weight="800" fill="#2e3440" opacity="0.55">Below Decks</text></g></g><g class="sk-edges"><g class="sk-edge-group" data-from="sketch-node-1" data-to="sketch-node-2" data-line-number="8"><path d="M 416 192 C 416 102, 728 -90, 728 0" fill="none" stroke="#4c566a" stroke-width="2" marker-end="url(#sk-arrow-4c566a)"></path><path class="sk-edge-hit" d="M 416 192 C 416 102, 728 -90, 728 0" fill="none" stroke="transparent" stroke-width="18" stroke-linecap="round" pointer-events="stroke"></path></g><g class="sk-edge-group" data-from="sketch-node-2" data-to="sketch-node-4" data-line-number="10"><path d="M 728 128 C 728 210.4621125123532, 624 173.5378874876468, 624 256" fill="none" stroke="#4c566a" stroke-width="2" marker-end="url(#sk-arrow-4c566a)"></path><path class="sk-edge-hit" d="M 728 128 C 728 210.4621125123532, 624 173.5378874876468, 624 256" fill="none" stroke="transparent" stroke-width="18" stroke-linecap="round" pointer-events="stroke"></path></g><g class="sk-edge-group" data-from="sketch-node-2" data-to="[armory]" data-line-number="11"><path d="M 624 64 C 534 64, 298 192, 208 192" fill="none" stroke="#4c566a" stroke-width="2" marker-end="url(#sk-arrow-4c566a)"></path><path class="sk-edge-hit" d="M 624 64 C 534 64, 298 192, 208 192" fill="none" stroke="transparent" stroke-width="18" stroke-linecap="round" pointer-events="stroke"></path></g><g class="sk-edge-group" data-from="sketch-node-3" data-to="sketch-node-5" data-line-number="13"><path d="M 1040 128 C 1040 210.4621125123532, 936 173.5378874876468, 936 256" fill="none" stroke="#4c566a" stroke-width="2" marker-end="url(#sk-arrow-4c566a)"></path><path class="sk-edge-hit" d="M 1040 128 C 1040 210.4621125123532, 936 173.5378874876468, 936 256" fill="none" stroke="transparent" stroke-width="18" stroke-linecap="round" pointer-events="stroke"></path></g><g class="sk-edge-group" data-from="sketch-node-4" data-to="sketch-node-3" data-line-number="17"><path d="M 728 320 C 818 320, 846 64, 936 64" fill="none" stroke="#4c566a" stroke-width="2" stroke-dasharray="6 3" marker-end="url(#sk-arrow-4c566a)"></path><path class="sk-edge-hit" d="M 728 320 C 818 320, 846 64, 936 64" fill="none" stroke="transparent" stroke-width="18" stroke-linecap="round" pointer-events="stroke"></path></g></g><g class="sk-nodes"><g class="sk-node" transform="translate(312,192)" data-node-id="sketch-node-1" data-line-number="7" data-tag-crew="Deck"><rect x="0" y="0" width="208" height="128" rx="6" fill="#e1ccd2" stroke="#bf616a" stroke-width="2"></rect><text x="104" y="22.5" text-anchor="middle" fill="#bf616a" font-size="15" font-weight="bold">Spyglass Feed</text><line x1="0" y1="34" x2="208" y2="34" stroke="#bf616a" stroke-opacity="0.3" stroke-width="1"></line><text x="12" y="54" fill="#2e3440" font-size="12">Crew: </text><text x="46.68" y="54" fill="#2e3440" font-size="12">Deck</text></g><g class="sk-node" transform="translate(624,0)" data-node-id="sketch-node-2" data-line-number="9" data-tag-crew="Deck"><rect x="0" y="0" width="208" height="128" rx="6" fill="#e1ccd2" stroke="#bf616a" stroke-width="2"></rect><text x="104" y="22.5" text-anchor="middle" fill="#bf616a" font-size="15" font-weight="bold">Captain's Console</text><line x1="0" y1="34" x2="208" y2="34" stroke="#bf616a" stroke-opacity="0.3" stroke-width="1"></line><text x="12" y="54" fill="#2e3440" font-size="12">Crew: </text><text x="46.68" y="54" fill="#2e3440" font-size="12">Deck</text></g><g class="sk-node" transform="translate(936,0)" data-node-id="sketch-node-3" data-line-number="12" data-tag-crew="Hold"><rect x="0" y="0" width="208" height="128" rx="6" fill="#dae3da" stroke="#a3be8c" stroke-width="2"></rect><text x="104" y="22.5" text-anchor="middle" fill="#a3be8c" font-size="15" font-weight="bold">Divvy Service</text><line x1="0" y1="34" x2="208" y2="34" stroke="#a3be8c" stroke-opacity="0.3" stroke-width="1"></line><text x="12" y="54" fill="#2e3440" font-size="12">Crew: </text><text x="46.68" y="54" fill="#2e3440" font-size="12">Hold</text></g><g class="sk-node" transform="translate(520,256)" data-node-id="sketch-node-4" data-line-number="16" data-tag-crew="Hold"><rect x="0" y="0" width="208" height="128" rx="6" fill="#dae3da" stroke="#a3be8c" stroke-width="2"></rect><text x="104" y="22.5" text-anchor="middle" fill="#a3be8c" font-size="15" font-weight="bold">Booty Queue</text><line x1="0" y1="34" x2="208" y2="34" stroke="#a3be8c" stroke-opacity="0.3" stroke-width="1"></line><text x="12" y="54" fill="#2e3440" font-size="12">Crew: </text><text x="46.68" y="54" fill="#2e3440" font-size="12">Hold</text><g transform="translate(10,9)" fill="none" stroke="#a3be8c" stroke-width="1.3" stroke-linejoin="round" stroke-linecap="round"><path d="M3 1 h8 a3 6.5 0 0 1 0 13 h-8 Z"></path><ellipse cx="3" cy="7.5" rx="3" ry="6.5"></ellipse></g></g><g class="sk-node" transform="translate(832,256)" data-node-id="sketch-node-5" data-line-number="18" data-tag-crew="Hold"><rect x="0" y="0" width="208" height="128" rx="6" fill="#dae3da" stroke="#a3be8c" stroke-width="2"></rect><text x="104" y="22.5" text-anchor="middle" fill="#a3be8c" font-size="15" font-weight="bold">Ship Ledger</text><line x1="0" y1="34" x2="208" y2="34" stroke="#a3be8c" stroke-opacity="0.3" stroke-width="1"></line><text x="12" y="54" fill="#2e3440" font-size="12">Crew: </text><text x="46.68" y="54" fill="#2e3440" font-size="12">Hold</text><g transform="translate(10,9)" fill="none" stroke="#a3be8c" stroke-width="1.3" stroke-linejoin="round" stroke-linecap="round"><ellipse cx="8" cy="3" rx="6" ry="2.4"></ellipse><path d="M2 3 v10 a6 2.4 0 0 0 12 0 v-10"></path></g></g><g class="sk-node sk-box-collapsed" transform="translate(0,128)" data-node-id="[armory]" data-line-number="20" data-group-toggle="Armory"><rect x="0" y="0" width="208" height="128" rx="6" fill="#d9dde3" stroke="#4c566a" stroke-width="2"></rect><text x="104" y="77" text-anchor="middle" fill="#2e3440" font-size="30" font-weight="bold">Armory</text><clipPath id="sk-clip-armory-20"><rect width="208" height="128" rx="6"></rect></clipPath><rect x="0" y="124" width="208" height="4" fill="#4c566a" clip-path="url(#sk-clip-armory-20)" class="sk-collapse-bar"></rect></g></g><g class="sk-edge-labels"><g class="sk-edge-label" data-from="sketch-node-1" data-to="sketch-node-2"><text x="572" y="28.5" text-anchor="middle" dominant-baseline="central" font-size="12" fill="#4c566a" stroke="#eceff4" stroke-width="3" stroke-linejoin="round" paint-order="stroke">sightings</text></g><g class="sk-edge-label" data-from="sketch-node-2" data-to="sketch-node-4"><text x="676" y="192" text-anchor="middle" dominant-baseline="central" font-size="12" fill="#4c566a" stroke="#eceff4" stroke-width="3" stroke-linejoin="round" paint-order="stroke">orders</text></g><g class="sk-edge-label" data-from="sketch-node-2" data-to="[armory]"><text x="367.39200000000005" y="146.94400000000002" text-anchor="middle" dominant-baseline="central" font-size="12" fill="#4c566a" stroke="#eceff4" stroke-width="3" stroke-linejoin="round" paint-order="stroke">supplies</text></g><g class="sk-edge-label" data-from="sketch-node-3" data-to="sketch-node-5"><text x="988" y="192" text-anchor="middle" dominant-baseline="central" font-size="12" fill="#4c566a" stroke="#eceff4" stroke-width="3" stroke-linejoin="round" paint-order="stroke">entries</text></g><g class="sk-edge-label" data-from="sketch-node-4" data-to="sketch-node-3"><text x="832" y="192" text-anchor="middle" dominant-baseline="central" font-size="12" fill="#4c566a" stroke="#eceff4" stroke-width="3" stroke-linejoin="round" paint-order="stroke">haul</text></g></g></g></svg>